#!OML:ASF H:\Terrain\Patient Classification 1\PLAYGROUND\JustinFriday\JustinFriday.ASF
:FULLY-SPECIFIED
:DEGREES
1225
root -19.3469 31.6981 -8.4897 245.911 77.8465 -85.6222
lowerback 50.2234 0.678637 -0.35803
upperback 13.7833 3.63283 1.63228
thorax -5.28394 2.78661 0.355128
lowerneck -0.701259 -4.39433 -1.73348
upperneck 15.7341 -6.63308 8.54573
head 5.17603 -2.69512 2.64138
rclavicle -7.95139e-015 2.54444e-014
rhumerus 58.5077 -16.3791 -94.6598
rradius 90.0847
rwrist 10.2477
rhand 16.2283 -20.4511
rfingers 7.12502
rthumb 41.0066 -45.3654
lclavicle -7.95139e-015 2.54444e-014
lhumerus 60.5241 -3.53332 56.7638
lradius 86.7545
lwrist -10.8962
lhand 26.3254 9.74366
lfingers 7.12502
lthumb 50.3751 30.7672
rfemur -95.4916 -5.47916 34.6143
rtibia 124.18
rfoot -26.2512 -7.10018
rtoes 1.95395
lfemur -64.4839 18.365 -13.6358
ltibia 108.545
lfoot -33.3859 -12.1182
ltoes 6.33493
1226
root -19.3323 31.7402 -8.46149 243.892 77.4417 -87.1747
lowerback 50.6881 0.765912 -0.578415
upperback 13.8301 3.74863 2.27072
thorax -5.3479 2.81248 1.08641
lowerneck -0.824068 -4.22566 -1.92551
upperneck 16.4429 -6.31843 7.78555
head 5.38175 -2.56894 2.45031
rclavicle -3.33958e-014 -3.89618e-014
rhumerus 58.0242 -16.2942 -93.5907
rradius 90.5297
rwrist 9.96443
rhand 16.0388 -20.3333
rfingers 7.12502
rthumb 40.8286 -45.3039
lclavicle -3.33958e-014 -3.89618e-014
lhumerus 60.0294 -2.51185 55.8905
lradius 87.5529
lwrist -9.47562
lhand 26.1288 10.0655
lfingers 7.12502
lthumb 50.1954 31.185
rfemur -94.7529 -5.76031 34.6581
rtibia 121.809
rfoot -26.1352 -7.38519
rtoes -0.224038
lfemur -63.5407 17.3104 -12.8481
ltibia 108.259
lfoot -33.2124 -12.9567
ltoes 8.02321
1227
root -19.2897 31.7576 -8.46508 241.189 76.5965 -89.895
lowerback 50.4083 -0.556105 1.09879
upperback 14.0134 2.96218 1.555
thorax -4.99551 2.56183 -0.126739
lowerneck -0.590738 -4.36467 -1.11035
upperneck 15.9623 -6.47391 7.38246
head 5.16522 -2.64605 2.18615
rclavicle -6.36111e-015 6.36111e-015
rhumerus 57.8044 -16.6285 -94.2316
rradius 91.16
rwrist 9.59458
rhand 16.1234 -20.3732
rfingers 7.12502
rthumb 40.908 -45.3188
lclavicle -6.36111e-015 6.36111e-015
lhumerus 60.0152 -1.96781 54.5845
lradius 88.0763
lwrist -8.79695
lhand 26.308 9.86726
lfingers 7.12502
lthumb 50.3593 30.8993
rfemur -94.7815 -6.52415 34.8591
rtibia 119.77
rfoot -25.7943 -7.07984
rtoes -0.184014
lfemur -64.276 18.2287 -12.0425
ltibia 108.501
lfoot -30.5622 -19.5231
ltoes 19.3976
1228
root -19.2911 31.8337 -8.45341 241.003 76.5385 -89.9711
lowerback 50.3121 -0.865359 1.45743
upperback 14.1755 2.74335 1.07581
thorax -4.76624 2.5171 -0.710072
lowerneck 0.383898 -4.51151 0.722434
upperneck 14.4576 -6.52074 6.27809
head 4.45256 -2.70961 1.57161
rclavicle -4.77083e-015 1.11319e-014
rhumerus 57.5053 -17.0498 -94.4993
rradius 91.8069
rwrist 9.11241
rhand 16.3096 -20.2487
rfingers 7.12502
rthumb 41.083 -45.1387
lclavicle -4.77083e-015 1.11319e-014
lhumerus 60.631 -2.56527 55.1477
lradius 87.2258
lwrist -10.5096
lhand 27.1839 8.30941
lfingers 7.12502
lthumb 51.1583 28.902
rfemur -93.8101 -6.19022 34.3568
rtibia 117.456
rfoot -25.6371 -6.19705
rtoes 2.95628
lfemur -63.2496 15.91 -11.2566
ltibia 108.047
lfoot -33.4414 -16.1201
ltoes 12.1702
1229
root -19.2722 31.8665 -8.47079 238.498 77.1109 -92.1554
lowerback 50.6461 -1.19198 1.36998
upperback 14.2173 2.28003 0.239958
thorax -4.7324 2.36867 -1.38245
lowerneck 0.0653972 -4.07792 -0.183257
upperneck 15.3866 -6.12594 7.80554
head 4.84747 -2.42994 2.19799
rclavicle -1.74931e-014 1.27222e-014
rhumerus 57.2342 -17.4468 -95.053
rradius 92.2806
rwrist 8.89294
rhand 16.287 -20.1605
rfingers 7.12502
rthumb 41.0616 -45.0573
lclavicle -1.74931e-014 1.27222e-014
lhumerus 60.6435 -2.44328 53.905
lradius 87.3654
lwrist -10.7885
lhand 27.6656 7.11493
lfingers 7.12502
lthumb 51.5965 27.4572
rfemur -93.1703 -6.70204 33.0247
rtibia 115.625
rfoot -24.9881 -4.78856
rtoes 6.85374
lfemur -62.5965 15.7753 -12.2545
ltibia 107.839
lfoot -30.5417 -19.05
ltoes 20.9632
1230
root -19.2425 31.8785 -8.40379 236.179 78.2409 -94.569
lowerback 50.4399 -0.457902 -0.283937
upperback 14.3109 2.30471 -0.175287
thorax -4.61991 2.35125 -1.06517
lowerneck 0.341945 -4.45716 3.15035
upperneck 14.5504 -6.40325 5.34479
head 4.89038 -2.56663 1.02352
rclavicle -2.70347e-014 4.92986e-014
rhumerus 57.0966 -17.4599 -95.6823
rradius 92.6337
rwrist 9.01474
rhand 15.8565 -20.3602
rfingers 7.12502
rthumb 40.6573 -45.3845
lclavicle -2.70347e-014 4.92986e-014
lhumerus 60.3751 -1.80117 52.6343
lradius 87.9082
lwrist -10.0104
lhand 27.9349 6.54936
lfingers 7.12502
lthumb 51.8411 26.7489
rfemur -93.0879 -5.93454 31.5987
rtibia 114.152
rfoot -23.5992 -5.30578
rtoes 8.48226
lfemur -62.4274 16.4645 -13.2724
ltibia 107.668
lfoot -30.5608 -19.3204
ltoes 20.13
